<svg width="86" height="86" viewBox="0 0 86 86" fill="none" xmlns="http://www.w3.org/2000/svg">
<path d="M86 63.4762C86 70.639 80.1944 76.4445 73.0317 76.4445H12.9683C5.8057 76.4445 0 70.639 0 63.4762V22.524C0 15.3614 5.8057 9.55566 12.9683 9.55566H73.0317C80.1944 9.55566 86 15.3614 86 22.524V63.4762ZM81.9047 22.524C81.9047 17.6234 77.9323 13.6509 73.0316 13.6509H12.9683C8.0677 13.6509 4.09526 17.6234 4.09526 22.524V63.4762C4.09526 68.377 8.0677 72.3494 12.9683 72.3494H73.0317C77.9324 72.3494 81.9049 68.377 81.9049 63.4762V22.524H81.9047Z" fill="#FB39F9"/>
<path d="M25.9325 40.2329C25.5353 40.2329 25.1354 40.1183 24.7818 39.878L15.2399 33.3871C14.1505 32.5913 13.5977 31.3804 13.7 30.1082C13.8011 28.8347 14.5409 27.7275 15.678 27.146L25.0016 22.3805C26.0117 21.8699 27.2431 22.2658 27.7577 23.2732C28.2723 24.2794 27.8723 25.5133 26.8663 26.028L18.2063 30.4536L27.0861 36.4914C28.0199 37.1275 28.2628 38.4011 27.6267 39.3362C27.2308 39.919 26.5878 40.2329 25.9325 40.2329Z" fill="#FB39F9"/>
<path d="M62.701 40.233C62.0459 40.233 61.4014 39.919 61.0057 39.3361C60.3708 38.4024 60.6125 37.1274 61.5476 36.4913L70.4261 30.4521L61.7673 26.0279C60.7613 25.5133 60.3613 24.2793 60.876 23.2733C61.392 22.2685 62.6245 21.87 63.6308 22.3804L72.9542 27.1459C74.0915 27.7274 74.8312 28.8346 74.9336 30.1081C75.0361 31.3804 74.4805 32.5912 73.4497 33.3461L63.8505 39.8779C63.4983 40.1183 63.0982 40.233 62.701 40.233Z" fill="#FB39F9"/>
</svg>
