<svg width="1134" height="592" viewBox="0 0 1134 592" fill="none" xmlns="http://www.w3.org/2000/svg">
<path fill-rule="evenodd" clip-rule="evenodd" d="M736 110C766.376 110 791 85.3755 791 55C791 24.6245 766.376 0 736 0C705.624 0 681 24.6245 681 55C681 85.3755 705.624 110 736 110ZM916.834 175.074C915.454 145.049 891.432 107 827.715 107V3C944.871 3 1016.7 82.6377 1020.72 170.3C1021.86 195.007 1017.49 220.108 1007.29 243.307C1041.96 251.783 1070.63 270.676 1091.82 296.044C1120.09 329.9 1133.45 373.138 1133.98 414.511C1134.52 455.878 1122.28 499.681 1093.81 534.125C1064.3 569.827 1020.07 592 965.317 592H768H716V540V290.374V238.374H768H838.532C872.058 238.374 891.101 227.769 901.419 217.226C912.127 206.285 917.578 191.266 916.834 175.074ZM838.532 342.374H820V488H965.317C989.97 488 1004.47 478.97 1013.65 467.867C1023.87 455.506 1030.27 436.902 1029.99 415.863C1029.72 394.83 1022.81 375.661 1012 362.712C1002.13 350.904 987.681 342.374 965.317 342.374H838.532ZM114.447 85.0103C97.8788 56.3125 61.1835 46.48 32.4862 63.0483L30.0097 64.478C1.31239 81.0464 -8.52013 117.742 8.04872 146.439L244.027 555.167C246.827 560.016 250.201 564.326 254.014 568.061C261.228 575.312 270.393 580.812 280.984 583.65L283.746 584.39C315.754 592.966 348.654 573.971 357.23 541.963L388.288 426.055L417.383 534.637C419.491 552.852 429.893 569.872 446.994 579.745L449.47 581.175C478.168 597.743 514.863 587.911 531.432 559.213L675.701 309.331C692.269 280.634 682.436 243.938 653.739 227.37L651.264 225.94C622.565 209.372 585.87 219.204 569.302 247.902L499.937 368.044L449.047 178.119C445.205 155.756 428.777 136.547 405.422 130.289L402.66 129.549C370.652 120.973 337.752 139.968 329.176 171.976L277.025 366.604L114.447 85.0103Z" fill="#FB39F9"/>
</svg>
