<svg width="86" height="86" viewBox="0 0 86 86" fill="none" xmlns="http://www.w3.org/2000/svg">
<path d="M61.8125 5.375H24.1875C22.0492 5.375 19.9985 6.22444 18.4865 7.73645C16.9744 9.24846 16.125 11.2992 16.125 13.4375V72.5625C16.125 74.7008 16.9744 76.7515 18.4865 78.2635C19.9985 79.7756 22.0492 80.625 24.1875 80.625H61.8125C63.9508 80.625 66.0015 79.7756 67.5135 78.2635C69.0256 76.7515 69.875 74.7008 69.875 72.5625V13.4375C69.875 11.2992 69.0256 9.24846 67.5135 7.73645C66.0015 6.22444 63.9508 5.375 61.8125 5.375ZM64.5 72.5625C64.5 73.2753 64.2169 73.9588 63.7129 74.4629C63.2088 74.9669 62.5253 75.25 61.8125 75.25H24.1875C23.4747 75.25 22.7912 74.9669 22.2872 74.4629C21.7831 73.9588 21.5 73.2753 21.5 72.5625V13.4375C21.5 12.7247 21.7831 12.0412 22.2872 11.5372C22.7912 11.0331 23.4747 10.75 24.1875 10.75H61.8125C62.5253 10.75 63.2088 11.0331 63.7129 11.5372C64.2169 12.0412 64.5 12.7247 64.5 13.4375V72.5625Z" fill="#FB39F9"/>
<path d="M33.8892 40.0975C34.2206 40.2387 34.577 40.3118 34.9373 40.3125C35.4648 40.3121 35.9806 40.1564 36.4202 39.8649C36.8599 39.5734 37.2041 39.1589 37.4098 38.6731L39.0223 34.9375H47.0848L48.6973 38.6731C48.8956 39.1425 49.2232 39.5458 49.6419 39.836C50.0606 40.1263 50.5532 40.2915 51.0623 40.3125C51.4225 40.3118 51.779 40.2387 52.1104 40.0975C52.7658 39.8191 53.2839 39.292 53.551 38.6319C53.818 37.9718 53.8122 37.2327 53.5348 36.5769L45.4723 17.7644C45.3048 17.2528 44.9696 16.8126 44.5209 16.5151C44.0722 16.2176 43.5363 16.0802 42.9998 16.125C42.465 16.0896 41.9333 16.2308 41.4866 16.527C41.0399 16.8232 40.7028 17.258 40.5273 17.7644L32.4648 36.5769C32.1874 37.2327 32.1816 37.9718 32.4486 38.6319C32.7157 39.292 33.2338 39.8191 33.8892 40.0975V40.0975ZM41.3067 29.5625L42.9998 25.6388L44.6929 29.5625H41.3067Z" fill="#FB39F9"/>
<path d="M26.875 59.125H43C43.7128 59.125 44.3963 58.8419 44.9004 58.3379C45.4044 57.8338 45.6875 57.1503 45.6875 56.4375C45.6875 55.7247 45.4044 55.0412 44.9004 54.5371C44.3963 54.0331 43.7128 53.75 43 53.75H26.875C26.1622 53.75 25.4787 54.0331 24.9747 54.5371C24.4706 55.0412 24.1875 55.7247 24.1875 56.4375C24.1875 57.1503 24.4706 57.8338 24.9747 58.3379C25.4787 58.8419 26.1622 59.125 26.875 59.125V59.125Z" fill="#FB39F9"/>
<path d="M56.4375 64.5H26.875C26.1622 64.5 25.4787 64.7831 24.9747 65.2871C24.4706 65.7912 24.1875 66.4747 24.1875 67.1875C24.1875 67.9003 24.4706 68.5838 24.9747 69.0879C25.4787 69.5919 26.1622 69.875 26.875 69.875H56.4375C57.1503 69.875 57.8338 69.5919 58.3379 69.0879C58.8419 68.5838 59.125 67.9003 59.125 67.1875C59.125 66.4747 58.8419 65.7912 58.3379 65.2871C57.8338 64.7831 57.1503 64.5 56.4375 64.5Z" fill="#FB39F9"/>
</svg>
